<!DOCTYPE svg PUBLIC "-//W3C//DTD SVG 1.1//EN" "http://www.w3.org/Graphics/SVG/1.1/DTD/svg11.dtd">
<!-- Uploaded to: SVG Repo, www.svgrepo.com, Transformed by: SVG Repo Mixer Tools -->
<svg width="800px" height="800px" viewBox="0 0 400.00 400.00" fill="none" xmlns="http://www.w3.org/2000/svg" stroke="#000000" transform="matrix(1, 0, 0, 1, 0, 0)">
<g id="SVGRepo_bgCarrier" stroke-width="0">
<rect x="0" y="0" width="400.00" height="400.00" rx="76" fill="#fafafa" strokewidth="0"/>
</g>
<g id="SVGRepo_tracerCarrier" stroke-linecap="round" stroke-linejoin="round" stroke="#CCCCCC" stroke-width="2.4"/>
<g id="SVGRepo_iconCarrier"> <path d="M112 286.273C113.818 274.591 130.409 268.187 132.311 257.025C132.861 253.794 113.033 52.2618 160.109 98.2535" stroke="#7d09f1" stroke-opacity="0.9" stroke-width="16" stroke-linecap="round" stroke-linejoin="round"/> <path d="M154.095 146.758C160.668 124.623 187.87 40.8902 203.406 94.7745" stroke="#7d09f1" stroke-opacity="0.9" stroke-width="16" stroke-linecap="round" stroke-linejoin="round"/> <path d="M176.947 141.947C204.041 99.052 299.649 29.5037 233.371 134.689" stroke="#7d09f1" stroke-opacity="0.9" stroke-width="16" stroke-linecap="round" stroke-linejoin="round"/> <path d="M197.401 157.756C206.892 153.649 214.856 144.944 224.511 141.086C243.412 133.532 274.506 141.343 269.344 167.13C264.888 189.387 205.163 159.609 215.126 199.427C224.928 238.599 273.819 161.388 282.897 176.507C312.936 226.525 190.072 274.494 166.122 322.354" stroke="#7d09f1" stroke-opacity="0.9" stroke-width="16" stroke-linecap="round" stroke-linejoin="round"/> </g>
</svg>